<svg xmlns="http://www.w3.org/2000/svg" viewBox="0 0 1024 1024">
  <rect width="1024" height="1024" fill="#FFFFFF"/>
  <g transform="translate(512,512) scale(3.0) translate(-156,-171)">
    <path fill="#BCBEC0" d="M95.63,95.77c-37.86,37.86-37.86,99.24,0,137.1l-15.36,15.36c37.86,37.86,99.24,37.86,137.1,0,37.86-37.86,37.86-99.24,0-137.1l15.36-15.36c-37.86-37.86-99.24-37.86-137.1,0Z"/>
    <path fill="#808285" d="M110.78,110.97c-29.39,29.39-29.31,77.11.16,106.59l-15.32,15.32c29.48,29.48,77.2,29.55,106.59.16,29.39-29.39,29.31-77.11-.16-106.59l15.32-15.32c-29.48-29.48-77.2-29.55-106.59-.16Z"/>
    <path fill="#58595B" d="M126.63,126.68c-20.89,20.89-20.99,54.66-.23,75.42l-15.46,15.46c20.76,20.76,54.53,20.66,75.42-.23,20.89-20.89,20.99-54.66.23-75.42l15.46-15.46c-20.76-20.76-54.53-20.66-75.42.23Z"/>
    <path fill="#231F20" d="M142,142.03c-12.35,12.35-12.41,32.32-.13,44.59l-15.47,15.47c12.28,12.28,32.24,12.22,44.59-.13,12.35-12.35,12.41-32.32.13-44.59l15.47-15.47c-12.28-12.28-32.24-12.22-44.59.13Z"/>
  </g>
</svg>
