<svg xmlns="http://www.w3.org/2000/svg" viewBox="40 80 600 360">
  <!-- Symbol: concentric strike rings (lime / white) -->
  <g>
    <path fill="#D6FD31" d="M272.67,95.81c-37.86,37.86-37.86,99.24,0,137.1l-15.36,15.36c37.86,37.86,99.24,37.86,137.1,0,37.86-37.86,37.86-99.24,0-137.1l15.36-15.36c-37.86-37.86-99.24-37.86-137.1,0Z"/>
    <path fill="#FFFFFF" d="M287.82,111.01c-29.39,29.39-29.31,77.11.16,106.59l-15.32,15.32c29.48,29.48,77.2,29.55,106.59.16,29.39-29.39,29.31-77.11-.16-106.59l15.32-15.32c-29.48-29.48-77.2-29.55-106.59-.16Z"/>
    <path fill="#D6FD31" d="M303.67,126.72c-20.89,20.89-20.99,54.66-.23,75.42l-15.46,15.46c20.76,20.76,54.53,20.66,75.42-.23,20.89-20.89,20.99-54.66.23-75.42l15.46-15.46c-20.76-20.76-54.53-20.66-75.42.23Z"/>
    <path fill="#FFFFFF" d="M319.04,142.07c-12.35,12.35-12.41,32.32-.13,44.59l-15.47,15.47c12.28,12.28,32.24,12.22,44.59-.13,12.35-12.35,12.41-32.32.13-44.59l15.47-15.47c-12.28-12.28-32.24-12.22-44.59.13Z"/>
  </g>
  <!-- Wordmark: STRIKIN -->
  <g fill="#E5E8EA">
    <path d="M132.14,359.68c-8.21-4.86-18.79-8.21-29.6-8.21-7.45,0-16.85,1.19-16.85,9.29s13.61,8.1,24.2,8.86c14.04.97,32.73,4.43,32.73,21.6,0,19.01-19.98,24.84-36.19,24.84-18.69,0-31.43-6.7-39.64-12.96l6.81-8.21c6.59,5.51,17.93,11.56,32.4,11.56,11.99,0,21.06-2.38,21.06-11.13,0-8.32-11.13-8.86-21.6-9.29-14.47-.65-35.11-4.75-35.11-21.06,0-17.5,17.17-23.12,32.3-23.12,16.31,0,27.11,4.1,35.43,9.51l-5.94,8.32Z"/>
    <path d="M183.49,414.12v-60.6s-24.2,0-24.2,0v-9.4s64.49,0,64.49,0v9.4s-24.2,0-24.2,0v60.6s-16.09,0-16.09,0Z"/>
    <path d="M247.06,344.13h39.86c15.45,0,22.36,2.05,27.65,7.24,3.24,3.24,5.18,8.21,5.18,13.72,0,4-1.84,7.89-4.86,10.91-3.67,3.56-9.29,5.72-15.23,6.37l20.74,31.76h-20.09s-18.47-29.27-18.47-29.27h-18.58s0,29.27,0,29.27h-16.2s0-70,0-70ZM286.92,375.56c8.64,0,15.34-3.78,15.34-10.91,0-9.61-8.1-11.13-17.82-11.13h-21.17s0,22.04,0,22.04h23.66Z"/>
    <path d="M345.69,414.12v-70s16.2,0,16.2,0v70s-16.2,0-16.2,0Z"/>
    <path d="M445.13,414.12l-21.71-34.89-14.37,14.47v20.42s-16.2,0-16.2,0v-70s16.2,0,16.2,0v35.54s34.67-35.54,34.67-35.54h15.88s-23.98,22.9-23.98,22.9l29.38,47.1h-19.87Z"/>
    <path d="M488.17,414.12v-70s16.2,0,16.2,0v70s-16.2,0-16.2,0Z"/>
    <path d="M586.45,414.12l-41.59-51.09v51.09s-11.67,0-11.67,0v-70s18.04,0,18.04,0l37.37,46.02v-46.02s11.67,0,11.67,0v70s-13.83,0-13.83,0Z"/>
  </g>
</svg>
